<?xml version="1.0" encoding="UTF-8" standalone="no" ?>
<!DOCTYPE svg PUBLIC "-//W3C//DTD SVG 1.1//EN" "http://www.w3.org/Graphics/SVG/1.1/DTD/svg11.dtd">
<svg xmlns="http://www.w3.org/2000/svg" xmlns:xlink="http://www.w3.org/1999/xlink" version="1.1" width="1080" height="500" viewBox="16.36 -12.22 1080 500" xml:space="preserve">
<desc>Created with Fabric.js 5.2.4</desc>
<defs>
</defs>
<rect x="0" y="0" width="100%" height="100%" fill="transparent"></rect>
<g transform="matrix(0 0 0 0 0 0)" id="6b1b3329-2578-43d5-9a4a-e3d559199214"  >
</g>
<g transform="matrix(1 0 0 1 540 250)" id="d617b390-7be3-4c4a-89b8-c3b7012f92b7"  >
<rect style="stroke: none; stroke-width: 1; stroke-dasharray: none; stroke-linecap: butt; stroke-dashoffset: 0; stroke-linejoin: miter; stroke-miterlimit: 4; fill: rgb(255,255,255); fill-rule: nonzero; opacity: 1; visibility: hidden;" vector-effect="non-scaling-stroke"  x="-540" y="-250" rx="0" ry="0" width="1080" height="500" />
</g>
<g transform="matrix(1.07 0 0 1.07 557.7 231.28)"  >
<g style="" vector-effect="non-scaling-stroke"   >
		<g transform="matrix(1 0 0 1 3.5 177.04)"  >
<path style="stroke: none; stroke-width: 1; stroke-dasharray: none; stroke-linecap: butt; stroke-dashoffset: 0; stroke-linejoin: miter; stroke-miterlimit: 4; fill: rgb(164,120,100); fill-rule: nonzero; opacity: 1;" vector-effect="non-scaling-stroke"  transform=" translate(71.88, -2.58)" d="M 0 0 C 21.93823002 0.00458169 43.87645486 0.00364734 65.81468481 -0.00090924 C 92.01199158 -0.00633394 118.20929531 -0.00835543 144.40660256 -0.00529698 C 147.22102302 -0.00497672 150.03544348 -0.00466386 152.84986395 -0.00435391 C 153.88740618 -0.00423529 153.88740618 -0.00423529 154.94590886 -0.00411428 C 165.04650904 -0.00301259 175.14710635 -0.00426502 185.24770635 -0.00683346 C 237.47828235 -0.01891056 289.70551066 0.06035566 341.93417084 0.54383039 C 345.31240394 0.57484276 348.69064643 0.6045705 352.0688929 0.63408694 C 357.3246194 0.68061539 362.58027557 0.73208023 367.83591485 0.78757757 C 369.73827657 0.80721752 371.64065161 0.82561862 373.54303896 0.84259439 C 385.43087116 0.95087841 397.26058543 1.36418907 409.1247434 2.12946185 C 409.1247434 2.45946185 409.1247434 2.78946185 409.1247434 3.12946185 C 334.7296313 3.98845546 260.33457143 4.45000851 185.93537101 4.72987539 C 180.82311159 4.74913241 175.7108542 4.7688782 170.59859747 4.78883609 C 35.25562921 5.31622249 35.25562921 5.31622249 -31.36967188 4.61438617 C -39.11107697 4.53311603 -46.85251167 4.45559016 -54.5940066 4.3833681 C -55.2598158 4.37712421 -55.925625 4.37088031 -56.61161023 4.36444721 C -87.48033347 4.07850813 -118.34919248 4.08516477 -149.2190066 4.0943056 C -150.51890559 4.09468428 -151.81880459 4.09506296 -153.15809447 4.09545311 C -171.5274173 4.10125406 -189.89673578 4.11273803 -208.26605506 4.12524498 C -232.30766236 4.14158933 -256.3492691 4.15525824 -280.3908816 4.16071185 C -281.07170137 4.16087278 -281.75252113 4.16103371 -282.4539718 4.16119951 C -343.38696667 4.17514836 -404.31809726 3.95376106 -465.2502566 3.62946185 C -466.3846873 3.62344707 -467.51911801 3.61743228 -468.6879254 3.61123523 C -496.7504391 3.46232454 -524.81288517 3.30314767 -552.8752566 3.12946185 C -552.8752566 2.79946185 -552.8752566 2.46946185 -552.8752566 2.12946185 C -497.4991007 1.03671065 -442.12001259 0.81470837 -386.73472983 0.60449609 C -380.17109776 0.57956611 -373.60747011 0.5536275 -367.04384314 0.52739515 C -296.93379665 0.24725062 -226.82386087 0.06933718 0 0 Z" stroke-linecap="round" />
</g>
		<g transform="matrix(1 0 0 1 -5.5 76.53)"  >
<path style="stroke: none; stroke-width: 1; stroke-dasharray: none; stroke-linecap: butt; stroke-dashoffset: 0; stroke-linejoin: miter; stroke-miterlimit: 4; fill: rgb(164,120,100); fill-rule: nonzero; opacity: 1;" vector-effect="non-scaling-stroke"  transform=" translate(-7.57, -92)" d="M 0 0 C 6.19328366 -0.09582062 12.37935893 -0.05593888 18.57226562 0.04589844 C 19.66498779 0.0567749 19.66498779 0.0567749 20.77978516 0.06787109 C 68.25306995 0.72613756 119.54710886 17.12038671 158.57226562 44.04589844 C 159.18344238 44.46468262 159.79461914 44.8834668 160.42431641 45.31494141 C 171.4718667 52.930859 181.800976 61.17819035 191.62304688 70.31933594 C 194.29117136 72.80054392 197.02109771 75.20516427 199.75976562 77.60839844 C 209.50322905 86.39145689 217.54353979 96.71988303 225.57226562 107.04589844 C 226.03391113 107.63467773 226.49555664 108.22345703 226.97119141 108.83007812 C 241.57428552 127.57466236 265.57226562 159.60121493 265.57226562 184.04589844 C 264.25226562 184.04589844 262.93226563 184.04589844 261.57226562 184.04589844 C 261.29664795 183.36825439 261.02103027 182.69061035 260.73706055 181.99243164 C 250.02008169 155.78874452 238.03037092 129.80289915 219.57226562 108.04589844 C 218.36255439 106.48446499 217.15428125 104.92191657 215.94726562 103.35839844 C 202.49440297 86.59487036 186.75928531 71.89741006 169.57226562 59.04589844 C 169.01603516 58.62743652 168.45980469 58.20897461 167.88671875 57.77783203 C 124.51142794 25.34758981 72.09245202 5.74105675 17.67822266 5.07226562 C 15.82862748 5.04910816 13.97952801 4.9916622 12.13085938 4.92871094 C -39.19780208 3.79507179 -93.01394589 18.27390387 -135.74902344 46.92285156 C -137.35622325 47.99805795 -138.98149212 49.04610613 -140.60742188 50.09277344 C -154.02943694 58.80836764 -166.26279476 68.73830636 -177.49365234 80.1328125 C -179.80007028 82.46264175 -182.10305347 84.70256724 -184.67773438 86.73339844 C -188.36660944 89.83540702 -191.33104472 93.36434692 -194.42773438 97.04589844 C -195.53955078 98.3259375 -195.53955078 98.3259375 -196.67382812 99.63183594 C -207.65474567 112.45754763 -217.11215145 126.3630222 -225.42773438 141.04589844 C -225.76756348 141.64047852 -226.10739258 142.23505859 -226.45751953 142.84765625 C -231.93304211 152.49986869 -236.28730522 162.49773925 -240.4765625 172.76367188 C -242.05687547 176.5554495 -243.7390871 180.30136193 -245.42773438 184.04589844 C -247.07773438 184.04589844 -248.72773438 184.04589844 -250.42773438 184.04589844 C -243.32888292 157.95906221 -228.72188461 132.47631896 -212.42773438 111.04589844 C -211.58488508 109.9159894 -210.74244145 108.78577765 -209.90039062 107.65527344 C -205.40522393 101.66949944 -200.7074616 95.93335159 -195.62304688 90.43261719 C -194.17318596 88.85634491 -192.75033335 87.25474516 -191.35742188 85.62792969 C -185.54406508 78.88143259 -179.05096241 73.23979553 -172.22436523 67.56396484 C -170.28501258 65.9253054 -168.38827902 64.24389365 -166.49023438 62.55761719 C -131.13386443 31.55671139 -87.08543298 13.75799144 -41.42773438 5.04589844 C -40.36506348 4.8394873 -39.30239258 4.63307617 -38.20751953 4.42041016 C -25.44512547 1.9650998 -13.00808576 0.24592922 0 0 Z" stroke-linecap="round" />
</g>
		<g transform="matrix(1 0 0 1 0 194.58)"  >
<path style="stroke: none; stroke-width: 1; stroke-dasharray: none; stroke-linecap: butt; stroke-dashoffset: 0; stroke-linejoin: miter; stroke-miterlimit: 4; fill: rgb(164,120,100); fill-rule: nonzero; opacity: 1;" vector-effect="non-scaling-stroke"  transform=" translate(-326.67, -2.13)" d="M 0 0 C 10.31802917 0.00328881 20.63605507 0.00055184 30.95408408 -0.00220345 C 51.14646851 -0.00740706 71.33884973 -0.0070385 91.53123444 -0.00412454 C 109.1808186 -0.00159049 126.8304016 -0.00096083 144.4799859 -0.00214718 C 145.6591258 -0.00222357 146.83826569 -0.00229995 148.05313709 -0.00237865 C 152.84145555 -0.00269007 157.629774 -0.00300848 162.41809246 -0.00333842 C 207.12556989 -0.00638215 251.8330453 -0.00364702 296.54052241 0.00175848 C 336.17325616 0.00651392 375.80598669 0.00606807 415.43872041 0.00129749 C 460.12994793 -0.00406422 504.82117368 -0.00617754 549.51240147 -0.00309025 C 554.27959107 -0.00276959 559.04678068 -0.00245675 563.81397028 -0.00214718 C 564.98749202 -0.00206811 566.16101377 -0.00198903 567.37009678 -0.00190756 C 585.02488214 -0.00077414 602.67966621 -0.00209251 620.33445139 -0.00462674 C 640.39671576 -0.00749247 660.45897648 -0.00675682 680.5212404 -0.00134599 C 691.7241833 0.00157643 702.92711825 0.00180202 714.13006094 -0.00199217 C 721.633545 -0.0042518 729.13702275 -0.00280823 736.64050588 0.0015126 C 740.90037075 0.00386682 745.16021997 0.00475701 749.42008429 0.00110662 C 769.69347091 -0.01505004 789.91324254 0.30021476 810.17138643 1.13166858 C 810.50138643 1.79166858 810.83138643 2.45166858 811.17138643 3.13166858 C 744.86062735 3.22799542 678.54986764 3.3238775 612.23910494 3.41767932 C 610.74435828 3.41979393 610.74435828 3.41979393 609.21941472 3.42195126 C 587.51336853 3.45265625 565.80732224 3.48328984 544.10127585 3.51385085 C 533.44202884 3.52885896 522.78278185 3.54388269 512.12353487 3.55891468 C 510.5332517 3.56115694 510.5332517 3.56115694 508.91084161 3.5634445 C 478.2418636 3.60669363 447.57288675 3.65068183 416.9039108 3.69536163 C 318.47116381 3.83875482 220.03841212 3.97909121 -42.70279033 4.22099619 C -51.09500781 4.22393777 -59.48722137 4.22931078 -67.87943678 4.23580982 C -77.72797982 4.24337069 -87.57651601 4.24744952 -97.42506208 4.24654366 C -102.28763194 4.24614913 -107.15018804 4.24718472 -112.01275521 4.25260402 C -116.37928042 4.25740858 -120.74577988 4.25753295 -125.112306 4.25390525 C -126.66550697 4.25340034 -128.21870964 4.25454342 -129.77190766 4.25760801 C -139.17257306 4.27501417 -148.46073212 3.93907032 -157.82861357 3.13166858 C -157.82861357 2.80166858 -157.82861357 2.47166858 -157.82861357 2.13166858 C -148.82105608 1.41324726 -139.85609476 0.95129238 -130.82158404 0.81981136 C -129.59067457 0.79933889 -128.3597651 0.77886642 -127.09155534 0.75777358 C -123.71330838 0.70367948 -120.33506468 0.65375578 -116.9567122 0.60699204 C -114.77981718 0.57675148 -112.60294201 0.54529546 -110.42606619 0.51370564 C -73.61857946 -0.01329884 -36.81051786 -0.01248159 0 0 Z" stroke-linecap="round" />
</g>
		<g transform="matrix(1 0 0 1 -3 86.49)"  >
<path style="stroke: none; stroke-width: 1; stroke-dasharray: none; stroke-linecap: butt; stroke-dashoffset: 0; stroke-linejoin: miter; stroke-miterlimit: 4; fill: rgb(164,120,100); fill-rule: nonzero; opacity: 1;" vector-effect="non-scaling-stroke"  transform=" translate(183.5, -9.91)" d="M 0 0 C 0.66306152 0.64839844 1.32612305 1.29679687 2.00927734 1.96484375 C 25.13635099 24.75320155 42.17087037 52.69792023 55.25 82.25 C 55.5377832 82.89912354 55.82556641 83.54824707 56.12207031 84.21704102 C 57.31105945 86.99953243 58 88.93773772 58 92 C 55 91 55 91 53.45703125 87.96484375 C 52.90008814 86.62600885 52.35257431 85.28322816 51.8125 83.9375 C 51.19064753 82.46091008 50.5655544 80.98568142 49.9375 79.51171875 C 49.45603516 78.37935791 49.45603516 78.37935791 48.96484375 77.22412109 C 37.18115223 50.06080385 20.16637571 25.56035889 -0.55322266 4.47314453 C -1.80210921 3.20149731 -3.03361821 1.91282644 -4.26171875 0.62109375 C -9.4406801 -4.74695747 -15.16590236 -9.36571679 -21 -14 C -22.09672008 -14.88756888 -23.19306265 -15.77560441 -24.2890625 -16.6640625 C -69.58737116 -53.13139741 -124.99581604 -72.29261468 -183.0625 -72.1875 C -184.1518988 -72.18559662 -184.1518988 -72.18559662 -185.26330566 -72.18365479 C -244.39449013 -71.98746961 -308.47515964 -50.79463868 -351.875 -9.203125 C -353.03006133 -8.03775062 -354.17741157 -6.86467599 -355.31640625 -5.68359375 C -356.99184853 -4.00815147 -358.74065988 -2.51370648 -360.5625 -1 C -388.28566797 23.08383318 -409.63747089 57.67771523 -422 92 C -422.99 92 -423.98 92 -425 92 C -424.50402262 85.74224279 -421.66006848 80.60571089 -418.9375 75.0625 C -418.43798828 74.03632568 -417.93847656 73.01015137 -417.42382812 71.95288086 C -415.96060222 68.96280032 -414.48332239 65.98015315 -413 63 C -412.62891113 62.24847656 -412.25782227 61.49695313 -411.87548828 60.72265625 C -406.80015186 50.5172762 -400.66270606 41.23492333 -394 32 C -393.2471875 30.94941406 -392.494375 29.89882813 -391.71875 28.81640625 C -380.21711237 13.1266723 -367.03857701 -1.60991732 -352 -14 C -351.28070313 -14.59683594 -350.56140625 -15.19367188 -349.8203125 -15.80859375 C -347.24115452 -17.90997329 -344.62876966 -19.96099535 -342 -22 C -341.48646973 -22.40202637 -340.97293945 -22.80405273 -340.44384766 -23.21826172 C -258.03904316 -87.30544548 -138.74910277 -92.72392676 0 0 Z" stroke-linecap="round" />
</g>
		<g transform="matrix(1 0 0 1 235.5 -6.98)"  >
<path style="stroke: none; stroke-width: 1; stroke-dasharray: none; stroke-linecap: butt; stroke-dashoffset: 0; stroke-linejoin: miter; stroke-miterlimit: 4; fill: rgb(164,120,100); fill-rule: nonzero; opacity: 1;" vector-effect="non-scaling-stroke"  transform=" translate(55, -46.44)" d="M 0 0 C -1.612328 4.03082 -4.46234596 6.75944137 -7.5 9.75 C -7.99886719 10.25660156 -8.49773437 10.76320312 -9.01171875 11.28515625 C -12.74658861 15 -12.74658861 15 -15 15 C -15.33 15.99 -15.66 16.98 -16 18 C -18.00868918 19.68384182 -20.02205662 21.25508769 -22.125 22.8125 C -27.56912241 26.95166423 -32.62380835 31.33369148 -37.5625 36.0625 C -53.35966527 51.1231911 -53.35966527 51.1231911 -62 55 C -62 55.66 -62 56.32 -62 57 C -64.06852899 58.76655395 -66.14622722 60.42333963 -68.3125 62.0625 C -69.60490268 63.0576386 -70.89656092 64.05374473 -72.1875 65.05078125 C -72.83332031 65.54787598 -73.47914063 66.0449707 -74.14453125 66.55712891 C -76.73929193 68.57489675 -79.27748215 70.6578901 -81.8125 72.75 C -85.02021416 75.39495729 -88.25610827 77.97974337 -91.5625 80.5 C -95.91866581 83.82196817 -99.82626999 87.54488269 -103.73828125 91.375 C -106 93 -106 93 -108.29296875 92.75 C -109.13794922 92.37875 -109.13794922 92.37875 -110 92 C -110 91.34 -110 90.68 -110 90 C -108.42713316 88.58561594 -106.78860004 87.24395599 -105.125 85.9375 C -101.34249013 82.91728166 -97.67928585 79.84787607 -94.125 76.5625 C -89.85376329 72.66474186 -85.38160135 69.1525653 -80.76635742 65.68017578 C -76.58051197 62.51106179 -72.69922656 59.11807217 -68.90234375 55.49609375 C -66.90130929 53.92238493 -65.48917192 53.40469833 -63 53 C -63 52.34 -63 51.68 -63 51 C -61.70703125 49.66015625 -61.70703125 49.66015625 -59.8125 48.0625 C -59.07773437 47.43730469 -58.34296875 46.81210938 -57.5859375 46.16796875 C -56.73257813 45.45253906 -55.87921875 44.73710937 -55 44 C -53.51635703 42.7463017 -52.03274644 41.49256477 -50.54980469 40.23803711 C -49.45756264 39.31465925 -48.36443595 38.39232698 -47.27050781 37.47094727 C -43.63042434 34.40008003 -40.03095472 31.28690609 -36.44799805 28.1496582 C -30.39347883 22.85244386 -24.23965825 17.75386954 -17.87426758 12.83447266 C -13.64150354 9.54997949 -9.61423306 6.09205677 -5.671875 2.4609375 C -3.70180532 0.73942802 -2.64058412 0 0 0 Z" stroke-linecap="round" />
</g>
		<g transform="matrix(1 0 0 1 260.5 18.08)"  >
<path style="stroke: none; stroke-width: 1; stroke-dasharray: none; stroke-linecap: butt; stroke-dashoffset: 0; stroke-linejoin: miter; stroke-miterlimit: 4; fill: rgb(164,120,100); fill-rule: nonzero; opacity: 1;" vector-effect="non-scaling-stroke"  transform=" translate(46, -55.5)" d="M 0 0 C -1.28287663 4.59697458 -2.97400163 7.35516661 -6 11 C -6.85352842 12.07553964 -7.70361415 13.15381764 -8.55078125 14.234375 C -8.99881104 14.80462402 -9.44684082 15.37487305 -9.90844727 15.96240234 C -10.37178467 16.55230957 -10.83512207 17.1422168 -11.3125 17.75 C -12.03554321 18.66773193 -12.03554321 18.66773193 -12.77319336 19.60400391 C -16.12766276 23.86701047 -19.42302968 28.17033331 -22.66015625 32.5234375 C -23.10230469 33.01070312 -23.54445313 33.49796875 -24 34 C -24.66 34 -25.32 34 -26 34 C -26.20625 34.680625 -26.4125 35.36125 -26.625 36.0625 C -28.11569115 39.24715837 -29.86080766 41.33876641 -32.18359375 43.94140625 C -34.23251558 46.26351766 -36.1771044 48.6550283 -38.125 51.0625 C -42.26233528 56.14812096 -46.51648548 61.123254 -50.83837891 66.05297852 C -53.86544574 69.541433 -56.46116031 73.13102908 -59 77 C -60.6454378 78.68762851 -62.31288577 80.3540349 -64 82 C -64.90589605 83.09592597 -65.80181145 84.20017937 -66.6875 85.3125 C -67.450625 86.199375 -68.21375 87.08625 -69 88 C -69.66 88 -70.32 88 -71 88 C -71.26554688 88.58652344 -71.53109375 89.17304688 -71.8046875 89.77734375 C -73.03331663 92.06195151 -74.36387936 93.66622359 -76.125 95.5625 C -80.48556301 100.41879017 -84.23332083 105.67773126 -88 111 C -89.32 110.67 -90.64 110.34 -92 110 C -90.6799177 107.15875809 -89.20153376 104.83776067 -87.20703125 102.42578125 C -86.66216064 101.76191406 -86.11729004 101.09804688 -85.5559082 100.4140625 C -84.9805835 99.72054687 -84.40525879 99.02703125 -83.8125 98.3125 C -82.63452103 96.88224761 -81.45743139 95.45126226 -80.28125 94.01953125 C -79.71535156 93.33068848 -79.14945313 92.6418457 -78.56640625 91.93212891 C -76.04599411 88.82325396 -73.64354885 85.62770173 -71.26953125 82.40625 C -70.64111328 81.71015625 -70.64111328 81.71015625 -70 81 C -69.34 81 -68.68 81 -68 81 C -67.77441406 80.46503906 -67.54882812 79.93007812 -67.31640625 79.37890625 C -65.57351263 76.22928544 -63.28780187 73.64014695 -60.9375 70.9375 C -59.93807371 69.77276001 -58.93938636 68.6073856 -57.94140625 67.44140625 C -57.44398926 66.86148926 -56.94657227 66.28157227 -56.43408203 65.68408203 C -52.88446104 61.51566433 -49.45487289 57.24687444 -46 53 C -44.58375089 51.27049133 -43.16707527 49.54133183 -41.75 47.8125 C -39.08637094 44.56006873 -36.43207271 41.30044076 -33.7890625 38.03125 C -23.96738876 25.89053071 -23.96738876 25.89053071 -20.375 21.875 C -16.66783299 17.73114915 -13.29443801 13.32631303 -9.90576172 8.92138672 C -2.99623112 0 -2.99623112 0 0 0 Z" stroke-linecap="round" />
</g>
		<g transform="matrix(1 0 0 1 322 110.08)"  >
<path style="stroke: none; stroke-width: 1; stroke-dasharray: none; stroke-linecap: butt; stroke-dashoffset: 0; stroke-linejoin: miter; stroke-miterlimit: 4; fill: rgb(164,120,100); fill-rule: nonzero; opacity: 1;" vector-effect="non-scaling-stroke"  transform=" translate(57.5, -39.5)" d="M 0 0 C 0.99 0.33 1.98 0.66 3 1 C -0.46035497 4.63911869 -3.95170699 7.53469984 -8.125 10.375 C -8.69484619 10.76365234 -9.26469238 11.15230469 -9.85180664 11.55273438 C -15.16006812 15.15315898 -20.5708455 18.58548401 -26 22 C -28.25220457 23.43419956 -30.50259288 24.8708318 -32.75 26.3125 C -33.63619019 26.88037231 -33.63619019 26.88037231 -34.5402832 27.4597168 C -37.5565593 29.40023248 -40.55397743 31.36348346 -43.5234375 33.375 C -51.50313064 38.77908668 -59.63451961 43.82565648 -67.92797852 48.73608398 C -73.0415698 51.77813437 -77.9431721 54.98016705 -82.765625 58.46875 C -88.3986723 62.32916003 -94.18310048 65.9474805 -101 67 C -101 67.66 -101 68.32 -101 69 C -102.37695312 70.14501953 -102.37695312 70.14501953 -104.28125 71.3828125 C -104.95800781 71.82753906 -105.63476562 72.27226562 -106.33203125 72.73046875 C -107.04746094 73.19066406 -107.76289062 73.65085937 -108.5 74.125 C -109.21542969 74.59292969 -109.93085937 75.06085938 -110.66796875 75.54296875 C -112.44126915 76.70152501 -114.2201309 77.85156066 -116 79 C -116.66 77.68 -117.32 76.36 -118 75 C -107.92338466 68.14849606 -97.66277079 61.68084006 -87.24316406 55.36572266 C -78.87611787 50.27155022 -70.55829478 45.10029076 -62.4453125 39.609375 C -59.12768713 37.42588994 -55.75035923 35.34275462 -52.375 33.25 C -47.05590138 29.95052183 -41.81068663 26.56767873 -36.625 23.0625 C -30.3441434 18.82413707 -23.93119874 14.83485118 -17.44360352 10.92114258 C -14.09966096 8.90270059 -10.7728772 6.87705282 -7.51953125 4.71484375 C -6.54371094 4.06644531 -5.56789063 3.41804688 -4.5625 2.75 C -3.73878906 2.18796875 -2.91507813 1.6259375 -2.06640625 1.046875 C -1.38449219 0.70140625 -0.70257812 0.3559375 0 0 Z" stroke-linecap="round" />
</g>
		<g transform="matrix(1 0 0 1 305 78.48)"  >
<path style="stroke: none; stroke-width: 1; stroke-dasharray: none; stroke-linecap: butt; stroke-dashoffset: 0; stroke-linejoin: miter; stroke-miterlimit: 4; fill: rgb(164,120,100); fill-rule: nonzero; opacity: 1;" vector-effect="non-scaling-stroke"  transform=" translate(66.5, -27.9)" d="M 0 0 C 0 0.66 0 1.32 0 2 C -11.75938577 8.84530099 -24.0863766 13.7648701 -36.73925781 18.70898438 C -41.96034565 20.77615362 -47.1358696 22.94939973 -52.3125 25.125 C -70.16685731 32.60482218 -88.13320453 39.88298417 -106.29296875 46.59375 C -106.98455078 46.84946777 -107.67613281 47.10518555 -108.38867188 47.36865234 C -109.73440837 47.86544592 -111.08074595 48.36061487 -112.42773438 48.85400391 C -117.37758438 50.69327188 -122.08633359 52.87113057 -126.765625 55.3125 C -129 56 -129 56 -131.296875 55.125 C -131.85890625 54.75375 -132.4209375 54.3825 -133 54 C -131.55032493 51.10064987 -129.68456199 50.87382479 -126.69921875 49.6796875 C -125.03016479 49.00619263 -125.03016479 49.00619263 -123.32739258 48.3190918 C -122.12622803 47.8425415 -120.92506348 47.36599121 -119.6875 46.875 C -117.82904859 46.12875633 -115.97059728 45.3825124 -114.11216736 44.63621521 C -112.24602179 43.88825555 -110.37859746 43.14358105 -108.51074219 42.39990234 C -105.44391705 41.17701115 -102.38101308 39.94514829 -99.3203125 38.70703125 C -91.74691282 35.64891803 -84.15685766 32.65566468 -76.5 29.8125 C -68.16461369 26.71391516 -59.99269251 23.31329494 -51.84765625 19.74609375 C -6.74168423 0 -6.74168423 0 0 0 Z" stroke-linecap="round" />
</g>
		<g transform="matrix(1 0 0 1 142.5 -66.42)"  >
<path style="stroke: none; stroke-width: 1; stroke-dasharray: none; stroke-linecap: butt; stroke-dashoffset: 0; stroke-linejoin: miter; stroke-miterlimit: 4; fill: rgb(164,120,100); fill-rule: nonzero; opacity: 1;" vector-effect="non-scaling-stroke"  transform=" translate(36, -60)" d="M 0 0 C 0.66 0 1.32 0 2 0 C 1.39308774 4.45911927 -0.36849636 8.03725873 -2.5 11.9375 C -2.85892334 12.60152832 -3.21784668 13.26555664 -3.58764648 13.94970703 C -6.23824212 18.78014058 -9.11700849 23.4240177 -12.15039062 28.02514648 C -16.11447021 34.07501585 -19.79824863 40.28724482 -23.5 46.5 C -28.839432 55.44904925 -34.29826299 64.27832457 -40 73 C -41.19005613 74.87337868 -42.37764975 76.74832444 -43.5625 78.625 C -48.39882615 86.23132357 -53.36591921 93.74148885 -58.625 101.0625 C -61.70108072 105.41265534 -64.26260239 109.93837989 -66.73828125 114.65234375 C -68 117 -68 117 -70 120 C -71.32 119.67 -72.64 119.34 -74 119 C -68.69324802 109.51306909 -63.10371381 100.24607368 -57.29541016 91.05859375 C -55.98250759 88.97220204 -54.68275101 86.87815753 -53.38671875 84.78125 C -49.79993919 78.98571237 -46.23015593 73.22472793 -42.25 67.6875 C -39.36610016 63.6527167 -37.03576738 59.47478277 -34.71484375 55.09765625 C -31.4956452 49.28256639 -27.87692509 43.70841185 -24.32324219 38.09375 C -22.16200859 34.6740564 -20.01867888 31.24321469 -17.875 27.8125 C -17.4612915 27.15169434 -17.04758301 26.49088867 -16.62133789 25.81005859 C -14.65532162 22.66645417 -12.69974951 19.51729241 -10.76953125 16.3515625 C -3.48747609 4.41063153 -3.48747609 4.41063153 0 0 Z" stroke-linecap="round" />
</g>
		<g transform="matrix(1 0 0 1 174.5 -50.92)"  >
<path style="stroke: none; stroke-width: 1; stroke-dasharray: none; stroke-linecap: butt; stroke-dashoffset: 0; stroke-linejoin: miter; stroke-miterlimit: 4; fill: rgb(164,120,100); fill-rule: nonzero; opacity: 1;" vector-effect="non-scaling-stroke"  transform=" translate(25, -66.5)" d="M 0 0 C 0.66 0 1.32 0 2 0 C 0.79626484 6.8919559 -0.95005494 13.35677229 -3.3125 19.9375 C -3.59544922 20.75412109 -3.87839844 21.57074219 -4.16992188 22.41210938 C -5.74830977 26.87429246 -7.50635295 31.18102597 -9.50390625 35.47265625 C -11.92951412 40.7112157 -13.81723122 46.02322099 -15.625 51.5 C -18.68947762 60.54084787 -22.07570067 69.41383844 -25.6875 78.25 C -26.13883301 79.35537109 -26.59016602 80.46074219 -27.05517578 81.59960938 C -30.75733772 90.57602841 -34.59842393 99.46695254 -39.125 108.0625 C -41.37710142 112.50925127 -42.97788903 116.79667682 -44.27734375 121.59765625 C -45.47002396 125.5625121 -47.22385242 129.26738529 -49 133 C -49.99 132.67 -50.98 132.34 -52 132 C -49.83910746 124.07225346 -46.90634375 116.57856618 -43.75 109 C -42.76320883 106.60592765 -41.77753368 104.211395 -40.79296875 101.81640625 C -40.31520996 100.65512207 -39.83745117 99.49383789 -39.34521484 98.29736328 C -36.99996294 92.5487295 -34.76284953 86.75975831 -32.53515625 80.96484375 C -31.42502203 78.08040323 -30.28615976 75.20873626 -29.1340332 72.34082031 C -27.16811254 67.43195133 -25.23751614 62.51009584 -23.3203125 57.58203125 C -22.63152102 55.81444899 -21.94271858 54.04687101 -21.25390625 52.27929688 C -20.19199241 49.55274155 -19.13029498 46.82610221 -18.06884766 44.09936523 C -4.06178367 8.12356734 -4.06178367 8.12356734 0 0 Z" stroke-linecap="round" />
</g>
		<g transform="matrix(1 0 0 1 -146 -66.42)"  >
<path style="stroke: none; stroke-width: 1; stroke-dasharray: none; stroke-linecap: butt; stroke-dashoffset: 0; stroke-linejoin: miter; stroke-miterlimit: 4; fill: rgb(164,120,100); fill-rule: nonzero; opacity: 1;" vector-effect="non-scaling-stroke"  transform=" translate(-37.5, -58)" d="M 0 0 C 4.34339211 3.35625754 6.99167638 6.33738167 10 11 C 12.22149179 14.16731478 14.44967719 17.32971749 16.68359375 20.48828125 C 18.41612022 23.02581258 19.92080103 25.62619095 21.3828125 28.328125 C 24.07817492 33.26797216 27.21169143 37.83254818 30.4375 42.4375 C 34.28836877 47.99844094 38.0503371 53.54205102 41.44140625 59.3984375 C 43.54848324 62.91551338 45.81315238 66.32276056 48.0625 69.75 C 54.2445426 79.20298742 59.95371607 88.92621374 65.640625 98.68261719 C 66.61314896 100.34051903 67.59584828 101.99246869 68.58520508 103.64038086 C 70.0033781 106.00563405 71.35436182 108.39843897 72.6875 110.8125 C 73.12449219 111.60269531 73.56148438 112.39289063 74.01171875 113.20703125 C 74.33785156 113.79871094 74.66398437 114.39039063 75 115 C 73.515 115.495 73.515 115.495 72 116 C 66.15316823 108.50229809 61.27104509 100.59650006 56.44018555 92.42358398 C 53.02146978 86.65372094 49.44160273 81.06929062 45.6640625 75.52734375 C 44.12617867 73.19163755 42.76031788 70.83714812 41.4375 68.375 C 39.26557811 64.34655083 36.73047421 60.69877731 34.07421875 56.9765625 C 27.29230596 47.24432607 21.03092422 37.13368342 14.79223633 27.04736328 C 12.55827082 23.44713035 10.27633156 19.88739258 7.9296875 16.359375 C 7.42050781 15.58980469 6.91132813 14.82023437 6.38671875 14.02734375 C 5.39967442 12.540401 4.40518667 11.058365 3.40234375 9.58203125 C 2.95761719 8.91042969 2.51289063 8.23882812 2.0546875 7.546875 C 1.65749512 6.95745117 1.26030273 6.36802734 0.85107422 5.76074219 C 0 4 0 4 0 0 Z" stroke-linecap="round" />
</g>
		<g transform="matrix(1 0 0 1 -240 -5.42)"  >
<path style="stroke: none; stroke-width: 1; stroke-dasharray: none; stroke-linecap: butt; stroke-dashoffset: 0; stroke-linejoin: miter; stroke-miterlimit: 4; fill: rgb(164,120,100); fill-rule: nonzero; opacity: 1;" vector-effect="non-scaling-stroke"  transform=" translate(-52.5, -43)" d="M 0 0 C 10.56078668 3.08983715 18.6631869 11.29988729 26.87890625 18.33984375 C 32.17947713 22.87651357 37.63874466 27.21014072 43.19140625 31.43359375 C 48.90175109 35.77831286 54.46413251 40.18846259 59.77734375 45.01953125 C 62.19201196 47.17108975 64.67534202 49.21321398 67.1875 51.25 C 73.34875257 56.25331731 79.37670896 61.40279852 85.37695312 66.59716797 C 86.87726889 67.89392104 88.38368276 69.18360971 89.890625 70.47265625 C 90.71046875 71.18292969 91.5303125 71.89320313 92.375 72.625 C 93.08398438 73.23601562 93.79296875 73.84703125 94.5234375 74.4765625 C 96 76 96 76 96 78 C 96.7425 78.268125 97.485 78.53625 98.25 78.8125 C 100.86636554 79.94229421 102.80187111 81.20893202 105 83 C 104.505 84.485 104.505 84.485 104 86 C 99.16798174 84.4888632 96.07485467 81.74057645 92.375 78.4375 C 91.12845096 77.3466878 89.88104585 76.25685316 88.6328125 75.16796875 C 87.71097168 74.36045166 87.71097168 74.36045166 86.77050781 73.53662109 C 80.13229792 67.77532861 73.20956317 62.337919 66.2890625 56.921875 C 64 55 64 55 61.5703125 52.54296875 C 58.93923049 49.93987697 56.21337918 47.77735724 53.25 45.5625 C 47.06502859 40.88740255 41.07790486 35.99510949 35.10864258 31.04882812 C 31.24662714 27.8492864 27.36867522 24.67720037 23.4375 21.5625 C 19.88855988 18.74369596 16.47215633 15.81259747 13.08984375 12.796875 C 9.83332807 9.99688021 6.41706655 7.40234088 3.00390625 4.796875 C 1 3 1 3 0 0 Z" stroke-linecap="round" />
</g>
		<g transform="matrix(1 0 0 1 -39.02 -95.42)"  >
<path style="stroke: none; stroke-width: 1; stroke-dasharray: none; stroke-linecap: butt; stroke-dashoffset: 0; stroke-linejoin: miter; stroke-miterlimit: 4; fill: rgb(164,120,100); fill-rule: nonzero; opacity: 1;" vector-effect="non-scaling-stroke"  transform=" translate(-18.47, -67)" d="M 0 0 C 0.66 0 1.32 0 2 0 C 7.09416815 11.73202363 10.1425011 23.89037842 13.10742188 36.28710938 C 14.54884979 42.29534643 16.02661429 48.25648509 17.90234375 54.1484375 C 20.54904867 62.52559327 22.61451705 71.04699297 24.72680664 79.57104492 C 25.42869789 82.40199827 26.13674333 85.23135648 26.84570312 88.06054688 C 29.24663716 97.67774619 31.56962346 107.3109774 33.78515625 116.97265625 C 33.99377792 117.87600204 34.2023996 118.77934784 34.41734314 119.71006775 C 35.4952225 124.46210393 36.39155046 129.16485979 37 134 C 36.01 134 35.02 134 34 134 C 30.76310236 124.95615002 28.3095011 115.79872502 26.01782227 106.48291016 C 25.43980525 104.13436649 24.85429654 101.78778953 24.26757812 99.44140625 C 22.53389191 92.47215629 20.86639814 85.50222038 19.39453125 78.47265625 C 18.24540049 73.00060499 16.85578922 67.66586827 15.25 62.3125 C 12.16464236 51.77077979 9.40540575 41.155162 6.6796875 30.515625 C 5.62843164 26.41416171 4.55465036 22.32050749 3.4453125 18.234375 C 3.21013916 17.36377441 2.97496582 16.49317383 2.73266602 15.59619141 C 2.30069921 14.00334333 1.86404079 12.41175651 1.42163086 10.82177734 C 0.42571696 7.13210909 -0.24774286 3.82875336 0 0 Z" stroke-linecap="round" />
</g>
		<g transform="matrix(1 0 0 1 36.04 -95.42)"  >
<path style="stroke: none; stroke-width: 1; stroke-dasharray: none; stroke-linecap: butt; stroke-dashoffset: 0; stroke-linejoin: miter; stroke-miterlimit: 4; fill: rgb(164,120,100); fill-rule: nonzero; opacity: 1;" vector-effect="non-scaling-stroke"  transform=" translate(16.46, -68)" d="M 0 0 C 0.33 0 0.66 0 1 0 C 1.77757573 14.7739388 -3.32102621 29.9177296 -6.75 44.1875 C -6.97031891 45.10730652 -7.19063782 46.02711304 -7.41763306 46.97479248 C -8.93712293 53.31846187 -10.46618444 59.65978085 -12 66 C -12.17698425 66.73305359 -12.35396851 67.46610718 -12.53631592 68.22137451 C -15.91069086 82.19207199 -19.46414537 96.07469771 -23.60424805 109.84033203 C -25.35127292 115.65679287 -26.91142858 121.49282345 -28.34204102 127.39550781 C -29.08080226 130.31985101 -29.97561155 133.16323198 -31 136 C -31.99 136 -32.98 136 -34 136 C -32.03669211 124.67816199 -29.49516965 113.60722653 -26.5625 102.5 C -25.79139891 99.55249284 -25.02290243 96.60430694 -24.25390625 93.65625 C -24.06357819 92.92809082 -23.87325012 92.19993164 -23.67715454 91.44970703 C -19.90909443 77.01604576 -16.43535496 62.51580392 -13 48 C -2.14868668 2.14868668 -2.14868668 2.14868668 0 0 Z" stroke-linecap="round" />
</g>
		<g transform="matrix(1 0 0 1 71.41 -89.92)"  >
<path style="stroke: none; stroke-width: 1; stroke-dasharray: none; stroke-linecap: butt; stroke-dashoffset: 0; stroke-linejoin: miter; stroke-miterlimit: 4; fill: rgb(164,120,100); fill-rule: nonzero; opacity: 1;" vector-effect="non-scaling-stroke"  transform=" translate(3.09, -70.5)" d="M 0 0 C 0.66 0 1.32 0 2 0 C 3.7277887 16.18050766 2.36185256 32.26493113 1.29394531 48.44140625 C 1.01122216 52.76169069 0.76222571 57.08334347 0.5234375 61.40625 C -0.30687162 76.26991072 -1.39368538 91.085754 -2.76184082 105.90988159 C -3.83870791 117.59677102 -4.60895484 129.26864508 -5 141 C -6.32 140.67 -7.64 140.34 -9 140 C -8.36058119 120.63548724 -7.20273394 101.32329236 -5.77905273 82.00134277 C -5.17687244 73.74925329 -4.65729315 65.49425711 -4.18405151 57.23391342 C -4.05896893 55.05569655 -3.93219593 52.87758385 -3.80493164 50.69949341 C -3.44383863 44.51921274 -3.08353337 38.33889233 -2.72949219 32.15820312 C -2.51116039 28.34879424 -2.28913382 24.53961621 -2.06466675 20.73056412 C -1.98036747 19.28816796 -1.8974454 17.8456906 -1.81594849 16.40313339 C -1.702414 14.39599594 -1.58374463 12.38915092 -1.46484375 10.38232422 C -1.399021 9.24318573 -1.33319824 8.10404724 -1.26538086 6.9303894 C -1.04476198 4.49427089 -0.68788283 2.33863222 0 0 Z" stroke-linecap="round" />
</g>
		<g transform="matrix(1 0 0 1 -177 -50.92)"  >
<path style="stroke: none; stroke-width: 1; stroke-dasharray: none; stroke-linecap: butt; stroke-dashoffset: 0; stroke-linejoin: miter; stroke-miterlimit: 4; fill: rgb(164,120,100); fill-rule: nonzero; opacity: 1;" vector-effect="non-scaling-stroke"  transform=" translate(-26.5, -62.5)" d="M 0 0 C 4.22799977 3.55840705 6.11591967 7.83300561 8.375 12.75 C 8.76929199 13.59401367 9.16358398 14.43802734 9.56982422 15.30761719 C 12.27836965 21.19364365 14.65123401 27.14659284 16.84033203 33.24169922 C 18.41526195 37.58325243 20.23077012 41.71444727 22.25 45.875 C 26.12769625 53.86944367 29.22630836 62.15409099 32.36035156 70.46240234 C 34.73538632 76.7546151 37.22594636 82.97732806 39.83496094 89.17602539 C 41.52965618 93.28385017 43.05581092 97.44532311 44.5625 101.625 C 46.70847692 107.51856834 48.89011346 113.38462408 51.2734375 119.1875 C 51.90756715 120.76941482 52.46105892 122.38317675 53 124 C 51.02 124.495 51.02 124.495 49 125 C 48.70343506 124.27111572 48.40687012 123.54223145 48.10131836 122.79125977 C 46.71373923 119.38152642 45.32561203 115.97201643 43.9375 112.5625 C 43.68734131 111.94763733 43.43718262 111.33277466 43.17944336 110.69927979 C 39.52211816 101.70884706 39.52211816 101.70884706 35.81640625 92.73828125 C 35.50388916 91.98667725 35.19137207 91.23507324 34.86938477 90.46069336 C 34.31401362 89.12833286 33.7561548 87.79700478 33.19506836 86.46704102 C 31.85329523 83.24600715 30.66227951 80.01527053 29.59765625 76.6953125 C 27.88851632 71.4726328 25.67664186 66.51338882 23.4375 61.5 C 18.41739618 50.10879656 13.76960027 38.59025563 9.19921875 27.01269531 C 8.01579576 24.03968235 6.80924503 21.07721679 5.59375 18.1171875 C 5.21879395 17.19897217 4.84383789 16.28075684 4.45751953 15.3347168 C 3.75545122 13.61786369 3.04839103 11.90304017 2.33544922 10.19067383 C 2.02623535 9.43036865 1.71702148 8.67006348 1.3984375 7.88671875 C 1.12692871 7.22889404 0.85541992 6.57106934 0.57568359 5.89331055 C 0 4 0 4 0 0 Z" stroke-linecap="round" />
</g>
		<g transform="matrix(1 0 0 1 -264.5 19.08)"  >
<path style="stroke: none; stroke-width: 1; stroke-dasharray: none; stroke-linecap: butt; stroke-dashoffset: 0; stroke-linejoin: miter; stroke-miterlimit: 4; fill: rgb(164,120,100); fill-rule: nonzero; opacity: 1;" vector-effect="non-scaling-stroke"  transform=" translate(-43, -50.5)" d="M 0 0 C 4.42761914 1.39153744 6.9556255 3.52071486 10 7 C 10 7.66 10 8.32 10 9 C 10.5878125 9.24234375 11.175625 9.4846875 11.78125 9.734375 C 14.42249753 11.24100211 15.66962122 12.82555091 17.5 15.25 C 21.52253929 20.46101681 25.77877431 25.4236203 30.13867188 30.35253906 C 34 34.78287886 34 34.78287886 34 37 C 34.99 37.33 35.98 37.66 37 38 C 38.82421875 39.77734375 38.82421875 39.77734375 40.6875 41.9375 C 41.31011719 42.64777344 41.93273437 43.35804688 42.57421875 44.08984375 C 44 46 44 46 44 48 C 44.66 48 45.32 48 46 48 C 47.296875 49.50390625 47.296875 49.50390625 48.75 51.5625 C 51.28813616 55.08213216 53.98438436 58.34175711 56.8984375 61.5546875 C 58 63 58 63 58 65 C 58.66 65 59.32 65 60 65 C 61.77094187 67.04642172 63.42539188 69.10002248 65.0625 71.25 C 65.55129639 71.88172119 66.04009277 72.51344238 66.54370117 73.16430664 C 70.41748064 78.18694453 74.20699653 83.27180287 77.984375 88.3671875 C 79.76367728 90.6913149 81.61114897 92.88318741 83.5625 95.0625 C 86 98 86 98 86 101 C 83.21745712 100.653728 82.12253323 100.12509669 80.1328125 98.09375 C 79.47023438 97.2378125 78.80765625 96.381875 78.125 95.5 C 77.34125 94.50742187 76.5575 93.51484375 75.75 92.4921875 C 75.31558594 91.93756836 74.88117188 91.38294922 74.43359375 90.81152344 C 71.71417615 87.37520215 68.9139962 84.00487881 66.125 80.625 C 65.53138672 79.9023999 64.93777344 79.1797998 64.32617188 78.43530273 C 61.46655816 74.95996969 58.58912177 71.50367157 55.65625 68.08984375 C 55.14304199 67.49155762 54.62983398 66.89327148 54.10107422 66.27685547 C 53.13838749 65.15876314 52.17145001 64.04431254 51.19970703 62.93408203 C 48 59.21911644 48 59.21911644 48 57 C 47.01 56.67 46.02 56.34 45 56 C 43.4140625 54.2421875 43.4140625 54.2421875 41.625 51.875 C 38.09294099 47.33007113 34.41346496 42.95822238 30.625 38.625 C 25.73927015 33.02629774 20.94432421 27.36517287 16.20703125 21.640625 C 14.27640325 19.33070548 12.3109931 17.06357426 10.3125 14.8125 C 0 3.10044643 0 3.10044643 0 0 Z" stroke-linecap="round" />
</g>
		<g transform="matrix(1 0 0 1 -326 112.58)"  >
<path style="stroke: none; stroke-width: 1; stroke-dasharray: none; stroke-linecap: butt; stroke-dashoffset: 0; stroke-linejoin: miter; stroke-miterlimit: 4; fill: rgb(164,120,100); fill-rule: nonzero; opacity: 1;" vector-effect="non-scaling-stroke"  transform=" translate(-55.5, -35)" d="M 0 0 C 6.30691447 0.38699144 11.00417507 3.55810533 16.3125 6.6875 C 17.21162109 7.20505859 18.11074219 7.72261719 19.03710938 8.25585938 C 24.07944281 11.18354827 28.95510833 14.27937962 33.7824707 17.54663086 C 37.56303386 20.0244127 41.50290755 22.21595193 45.4375 24.4375 C 51.47282817 27.88057069 57.32800919 31.38499752 62.89453125 35.5625 C 65.47550924 37.32465195 68.20276274 38.60837446 71 40 C 73.08170476 41.26048178 75.14293736 42.555124 77.1875 43.875 C 77.774104 44.25358154 78.36070801 44.63216309 78.96508789 45.0222168 C 85.16985896 49.05663748 91.26229665 53.25723406 97.33862305 57.48193359 C 101.78667999 60.55807216 106.26045864 63.3935678 111 66 C 110.01 67.98 110.01 67.98 109 70 C 82.10678745 53.69788362 82.10678745 53.69788362 71.8125 46.3125 C 67.72992497 43.41433491 63.5087179 41.05362254 59.08984375 38.7109375 C 54.75809187 36.31231889 50.59296312 33.67310856 46.40698242 31.03076172 C 41.1963533 27.74222139 35.95152118 24.51481632 30.6875 21.3125 C 24.07586426 17.2830971 17.49900402 13.20958215 11 9 C 10.1440625 8.45472656 9.288125 7.90945313 8.40625 7.34765625 C 7.5915625 6.82042969 6.776875 6.29320312 5.9375 5.75 C 5.22464844 5.29109375 4.51179688 4.8321875 3.77734375 4.359375 C 2 3 2 3 0 0 Z" stroke-linecap="round" />
</g>
		<g transform="matrix(1 0 0 1 -73.58 -89.92)"  >
<path style="stroke: none; stroke-width: 1; stroke-dasharray: none; stroke-linecap: butt; stroke-dashoffset: 0; stroke-linejoin: miter; stroke-miterlimit: 4; fill: rgb(164,120,100); fill-rule: nonzero; opacity: 1;" vector-effect="non-scaling-stroke"  transform=" translate(-5.92, -68.5)" d="M 0 0 C 0.99 0.495 0.99 0.495 2 1 C 2.61341232 3.45686088 3.06045327 5.81413487 3.4375 8.3125 C 3.62590454 9.53996948 3.62590454 9.53996948 3.81811523 10.79223633 C 7.46412109 36.28708523 8.5555691 62.31153749 10 88 C 10.04489563 88.79283386 10.08979126 89.58566772 10.13604736 90.40252686 C 10.42608326 95.53115554 10.71043827 100.66006204 10.98825073 105.78936768 C 11.07809593 107.44708272 11.16867004 109.10475845 11.26004028 110.76239014 C 11.73945783 119.51134092 12.15111825 128.23394204 12 137 C 11.01 137 10.02 137 9 137 C 7.66466691 124.38536403 6.69503161 111.77455266 5.94293213 99.11190796 C 5.25013464 87.50175071 4.40836111 75.90768714 3.5 64.3125 C 3.24313109 61.01565288 2.98678128 57.71876542 2.73046875 54.421875 C 2.63724838 53.22309975 2.63724838 53.22309975 2.54214478 52.00010681 C -0.40009258 14.11437709 -0.40009258 14.11437709 0 0 Z" stroke-linecap="round" />
</g>
		<g transform="matrix(1 0 0 1 -310 82.08)"  >
<path style="stroke: none; stroke-width: 1; stroke-dasharray: none; stroke-linecap: butt; stroke-dashoffset: 0; stroke-linejoin: miter; stroke-miterlimit: 4; fill: rgb(164,120,100); fill-rule: nonzero; opacity: 1;" vector-effect="non-scaling-stroke"  transform=" translate(-61.5, -24.5)" d="M 0 0 C 10.47082348 0.55109597 20.05068902 4.31372083 29.625 8.35546875 C 37.38402727 11.61954838 45.28760244 14.46365019 53.19726562 17.33789062 C 58.92015729 19.43400938 64.54901874 21.60710445 70.09301758 24.13989258 C 72.68814223 25.3103732 75.33374786 26.31627807 78 27.3125 C 89.35738107 31.64291664 100.52142736 36.12847215 111.328125 41.7109375 C 115.12478124 43.54265762 118.96616711 44.78985013 123 46 C 122.67 46.99 122.34 47.98 122 49 C 117.45039415 48.40491293 113.64457767 47.19788349 109.421875 45.41796875 C 108.50465668 45.0347924 108.50465668 45.0347924 107.56890869 44.64387512 C 105.62669703 43.83106378 103.68829755 43.0095955 101.75 42.1875 C 99.83103475 41.38054679 97.91131825 40.57539955 95.99157715 39.77029419 C 94.74130465 39.24564436 93.49138288 38.7201579 92.24182129 38.19381714 C 87.89660968 36.36555298 83.53019994 34.59871908 79.14746094 32.86279297 C 77.17802962 32.07152759 75.22795264 31.2476927 73.28125 30.40234375 C 70.04957063 29.02118554 66.79786877 27.77650903 63.5 26.5625 C 51.18944978 21.9892306 38.95540053 17.21341299 26.71875 12.44677734 C 24.37611529 11.53537679 22.03249913 10.62649104 19.6875 9.72119141 C 16.87201914 8.63409289 14.06046057 7.537498 11.25 6.4375 C 10.03715332 5.9727124 10.03715332 5.9727124 8.79980469 5.49853516 C 5.21486729 4.08268186 2.59612518 2.84491223 0 0 Z" stroke-linecap="round" />
</g>
		<g transform="matrix(1 0 0 1 275 52.08)"  >
<path style="stroke: none; stroke-width: 1; stroke-dasharray: none; stroke-linecap: butt; stroke-dashoffset: 0; stroke-linejoin: miter; stroke-miterlimit: 4; fill: rgb(164,120,100); fill-rule: nonzero; opacity: 1;" vector-effect="non-scaling-stroke"  transform=" translate(48.5, -36.5)" d="M 0 0 C -1.40277037 4.6266812 -3.59206791 6.73423253 -7.3125 9.75 C -8.10503174 10.39461182 -8.10503174 10.39461182 -8.91357422 11.05224609 C -13.7396409 14.91905929 -18.80360365 18.39059394 -23.921875 21.859375 C -27.51926627 24.3611141 -30.88924121 27.07007034 -34.28125 29.83984375 C -38.21031476 32.96164377 -42.2647871 35.9028478 -46.32275391 38.85400391 C -50.33577438 41.77339276 -54.30343828 44.74138737 -58.25 47.75 C -62.86627726 51.22929376 -67.6092002 54.38287314 -72.51953125 57.4296875 C -74.74584577 58.83910236 -76.87645587 60.31684393 -79 61.875 C -82 64 -82 64 -85 65 C -86.68816933 66.64488294 -88.35353315 68.31337542 -90 70 C -93.62068966 73 -93.62068966 73 -96 73 C -96.33 72.01 -96.66 71.02 -97 70 C -89.25754427 63.61336601 -81.19531263 57.77971209 -73 52 C -62.86723729 44.8380698 -52.90290373 37.47626039 -43 30 C -34.6902392 23.73936237 -26.34322899 17.53327132 -17.93310547 11.40820312 C -16.62123091 10.45254608 -15.31039188 9.4954662 -14.00048828 8.53710938 C -12.06645494 7.1238319 -10.12772759 5.71725712 -8.1875 4.3125 C -7.29828857 3.66099976 -7.29828857 3.66099976 -6.39111328 2.99633789 C -2.22915896 0 -2.22915896 0 0 0 Z" stroke-linecap="round" />
</g>
		<g transform="matrix(1 0 0 1 198.5 -22.42)"  >
<path style="stroke: none; stroke-width: 1; stroke-dasharray: none; stroke-linecap: butt; stroke-dashoffset: 0; stroke-linejoin: miter; stroke-miterlimit: 4; fill: rgb(164,120,100); fill-rule: nonzero; opacity: 1;" vector-effect="non-scaling-stroke"  transform=" translate(33, -49)" d="M 0 0 C 0.66 0 1.32 0 2 0 C 1.53623768 9.04336526 -6.00141004 16.45160644 -11.16796875 23.421875 C -13.05314374 25.98447377 -13.05314374 25.98447377 -14.61328125 28.828125 C -15.29970703 29.90320313 -15.29970703 29.90320313 -16 31 C -16.66 31 -17.32 31 -18 31 C -18.37898437 32.05767578 -18.37898437 32.05767578 -18.765625 33.13671875 C -21.99184856 40.62033227 -27.36916121 47.3021668 -32.3125 53.75 C -34.1112386 56.14831814 -35.8452007 58.58884331 -37.57543945 61.03686523 C -42.17477341 67.54229175 -46.96664111 73.82126299 -52 80 C -56.65382429 85.80986982 -60.9626963 91.74439756 -65 98 C -65.99 97.67 -66.98 97.34 -68 97 C -66.53627579 92.76537542 -64.32295456 89.38829968 -61.6875 85.8125 C -61.04022949 84.92087158 -61.04022949 84.92087158 -60.37988281 84.01123047 C -59.43478753 82.70964017 -58.48758891 81.40957519 -57.53857422 80.11083984 C -55.90368617 77.86786269 -54.28074302 75.61661079 -52.66015625 73.36328125 C -43.69733776 60.90819052 -43.69733776 60.90819052 -40.0078125 56.04296875 C -36.73094146 51.69094133 -33.67676646 47.1989657 -30.625 42.6875 C -25.86894336 35.6990634 -21.02906824 28.79551639 -16 22 C -14.59065245 20.08266212 -13.18306124 18.16404468 -11.77587891 16.24511719 C -10.83233719 14.95872698 -9.88805669 13.67287815 -8.94287109 12.38769531 C -8.50410645 11.79053711 -8.0653418 11.19337891 -7.61328125 10.578125 C -7.18225098 9.99353516 -6.7512207 9.40894531 -6.30712891 8.80664062 C -5.39585914 7.54713441 -4.50363813 6.27372007 -3.62646484 4.99023438 C -2.4630559 3.29475008 -1.23644792 1.6429802 0 0 Z" stroke-linecap="round" />
</g>
		<g transform="matrix(1 0 0 1 325.5 146.55)"  >
<path style="stroke: none; stroke-width: 1; stroke-dasharray: none; stroke-linecap: butt; stroke-dashoffset: 0; stroke-linejoin: miter; stroke-miterlimit: 4; fill: rgb(164,120,100); fill-rule: nonzero; opacity: 1;" vector-effect="non-scaling-stroke"  transform=" translate(57, -19.97)" d="M 0 0 C -7.17416048 7.96765972 -19.59388273 10.33131149 -29.5 13.5625 C -31.45974824 14.20624156 -33.41905501 14.85131448 -35.37832642 15.49650574 C -36.7558881 15.95004014 -38.13363757 16.40300453 -39.51156616 16.85542297 C -44.77132919 18.58524659 -50.01618214 20.35670363 -55.2578125 22.140625 C -83.07894199 31.58556535 -83.07894199 31.58556535 -95.97851562 34.53881836 C -101.01019688 35.69463841 -105.64208446 37.21748422 -110.3203125 39.3984375 C -111.15175781 39.69621094 -111.15175781 39.69621094 -112 40 C -112.66 39.67 -113.32 39.34 -114 39 C -113.67 38.01 -113.34 37.02 -113 36 C -110.48757032 34.92158024 -108.08158835 34.04384904 -105.484375 33.22265625 C -104.71756409 32.97003525 -103.95075317 32.71741425 -103.16070557 32.45713806 C -100.69399492 31.64763641 -98.2222059 30.85504031 -95.75 30.0625 C -94.12985698 29.53297484 -92.51006077 29.00238732 -90.890625 28.47070312 C -84.10524644 26.25120292 -77.30896675 24.08138617 -70.47265625 22.0234375 C -61.31175426 19.22832877 -52.32055904 15.92732975 -43.30102539 12.71166992 C -33.72978327 9.30369042 -24.14463814 6.03238455 -14.42895508 3.05834961 C -12.18404181 2.36545541 -9.94973879 1.63695158 -7.72924805 0.86938477 C -4.98224663 -0.00565522 -2.8612564 -0.1683092 0 0 Z" stroke-linecap="round" />
</g>
		<g transform="matrix(1 0 0 1 103.02 -70.92)"  >
<path style="stroke: none; stroke-width: 1; stroke-dasharray: none; stroke-linecap: butt; stroke-dashoffset: 0; stroke-linejoin: miter; stroke-miterlimit: 4; fill: rgb(164,120,100); fill-rule: nonzero; opacity: 1;" vector-effect="non-scaling-stroke"  transform=" translate(17.48, -56.5)" d="M 0 0 C 0.33 0 0.66 0 1 0 C 1.16225689 4.91763182 0.69258018 9.01528099 -0.625 13.75 C -0.8010376 14.38558838 -0.9770752 15.02117676 -1.15844727 15.67602539 C -3.29011427 23.24467151 -5.7054445 30.72786732 -8.11303711 38.2121582 C -8.98415468 40.95019606 -9.83799228 43.69331444 -10.68911743 46.43762207 C -13.45798975 55.35516123 -16.33834901 64.23299782 -19.28442383 73.09350586 C -20.06954743 75.45873074 -20.84822683 77.8260217 -21.62695312 80.19335938 C -23.89454341 87.04136826 -26.17022527 93.7628622 -29.24243164 100.30151367 C -30.20891661 102.46839601 -30.76192822 104.60738917 -31.1875 106.9375 C -31.61862434 109.22205609 -31.95719804 110.91439608 -33 113 C -33.99 113 -34.98 113 -36 113 C -35.44326362 106.93876405 -34.09509795 101.70644775 -32.05078125 95.98828125 C -31.75767563 95.14652847 -31.46457001 94.3047757 -31.1625824 93.43751526 C -30.53976116 91.64937572 -29.91375676 89.86234215 -29.28479004 88.07635498 C -27.65073998 83.43136509 -26.04422689 78.77693792 -24.44140625 74.12109375 C -24.13069183 73.21877014 -23.81997742 72.31644653 -23.49984741 71.38677979 C -21.14548303 64.51101905 -19.03015197 57.60253009 -17.13061523 50.58764648 C -14.95113894 42.60734608 -12.4180324 34.74500391 -9.875 26.875 C -9.6622644 26.21401306 -9.44952881 25.55302612 -9.23034668 24.87200928 C -1.79470168 1.79470168 -1.79470168 1.79470168 0 0 Z" stroke-linecap="round" />
</g>
		<g transform="matrix(1 0 0 1 -2.11 -86.92)"  >
<path style="stroke: none; stroke-width: 1; stroke-dasharray: none; stroke-linecap: butt; stroke-dashoffset: 0; stroke-linejoin: miter; stroke-miterlimit: 4; fill: rgb(164,120,100); fill-rule: nonzero; opacity: 1;" vector-effect="non-scaling-stroke"  transform=" translate(-1.39, -58.5)" d="M 0 0 C 4.23797314 6.35695971 3.17324871 15.65968539 3.31640625 23.125 C 3.33727798 24.06141327 3.35814972 24.99782654 3.37965393 25.96261597 C 3.44518392 28.97500184 3.50441588 31.98746196 3.5625 35 C 3.58334656 36.03288147 3.60419312 37.06576294 3.62567139 38.12994385 C 4.15516644 64.46428051 3.95692458 90.67948405 3 117 C 2.01 117 1.02 117 0 117 C -0.95779921 114.12660238 -1.12562758 112.33859481 -1.12698364 109.35604858 C -1.12980347 108.40257034 -1.13262329 107.4490921 -1.13552856 106.46672058 C -1.13350433 105.422444 -1.1314801 104.37816742 -1.12939453 103.30224609 C -1.13114685 102.20126083 -1.13289917 101.10027557 -1.13470459 99.96592712 C -1.13911422 96.31841466 -1.13618861 92.67095048 -1.1328125 89.0234375 C -1.1334857 86.4966328 -1.13445585 83.96982816 -1.13571167 81.44302368 C -1.13718736 76.14527714 -1.1351328 70.84754801 -1.13037109 65.54980469 C -1.12492332 59.41778873 -1.12669583 53.28580599 -1.1321975 47.15379083 C -1.13727382 41.26073387 -1.13674752 35.36768728 -1.13381577 29.47462845 C -1.13314638 26.96347677 -1.13397531 24.45232425 -1.13629532 21.94117355 C -1.13882002 18.44041407 -1.1349841 14.93971946 -1.12939453 11.43896484 C -1.13141876 10.3906398 -1.13344299 9.34231476 -1.13552856 8.26222229 C -1.13270874 7.3143837 -1.12988892 6.3665451 -1.12698364 5.38998413 C -1.12660662 4.56150152 -1.12622959 3.73301891 -1.12584114 2.87943077 C -1 1 -1 1 0 0 Z" stroke-linecap="round" />
</g>
		<g transform="matrix(1 0 0 1 -205 -20.42)"  >
<path style="stroke: none; stroke-width: 1; stroke-dasharray: none; stroke-linecap: butt; stroke-dashoffset: 0; stroke-linejoin: miter; stroke-miterlimit: 4; fill: rgb(164,120,100); fill-rule: nonzero; opacity: 1;" vector-effect="non-scaling-stroke"  transform=" translate(-33.5, -45)" d="M 0 0 C 3.61477175 1.49801352 5.68620463 3.57537417 8.25 6.5 C 8.95640625 7.2940625 9.6628125 8.088125 10.390625 8.90625 C 12 11 12 11 12 13 C 12.66 13 13.32 13 14 13 C 15.20166016 14.40185547 15.20166016 14.40185547 16.5390625 16.3671875 C 17.03317627 17.08318115 17.52729004 17.7991748 18.03637695 18.53686523 C 18.82274536 19.69424194 18.82274536 19.69424194 19.625 20.875 C 23.62480957 26.66220019 27.71895165 32.26760757 32.17578125 37.71484375 C 41 48.76873662 41 48.76873662 41 52 C 41.66 52 42.32 52 43 52 C 47 57.41176471 47 57.41176471 47 60 C 47.66 60 48.32 60 49 60 C 50.48046875 62.0546875 50.48046875 62.0546875 52.1875 64.875 C 54.59136897 68.7662629 57.04875572 72.57617459 59.6875 76.3125 C 60.25984375 77.12460938 60.8321875 77.93671875 61.421875 78.7734375 C 62.38712493 80.13530002 63.35519142 81.49517863 64.328125 82.8515625 C 66.18416087 85.50490955 67 86.67333512 67 90 C 64.41455943 89.63214146 63.25628337 89.2836894 61.47949219 87.31689453 C 61.00672852 86.59614746 60.53396484 85.87540039 60.046875 85.1328125 C 59.51408936 84.33480225 58.98130371 83.53679199 58.43237305 82.71459961 C 57.87718994 81.86003174 57.32200684 81.00546387 56.75 80.125 C 55.58572405 78.37818017 54.42036441 76.63208214 53.25390625 74.88671875 C 52.6933252 74.04157715 52.13274414 73.19643555 51.55517578 72.32568359 C 47.44056567 66.17250056 43.04063221 60.24609441 38.375 54.5 C 32.56563965 47.32104585 27.18215656 39.81741652 21.73095703 32.36572266 C 19.6585901 29.53339041 17.58084463 26.70503653 15.50268555 23.87695312 C 14.16074238 22.04869527 12.8223304 20.21789602 11.484375 18.38671875 C 9.86324361 16.16995393 8.22772991 13.96517968 6.578125 11.76953125 C 5.85109375 10.79371094 5.1240625 9.81789062 4.375 8.8125 C 3.74335938 7.97332031 3.11171875 7.13414062 2.4609375 6.26953125 C 1.07252079 4.1126593 0.426621 2.50783968 0 0 Z" stroke-linecap="round" />
</g>
		<g transform="matrix(1 0 0 1 -108.5 -69.92)"  >
<path style="stroke: none; stroke-width: 1; stroke-dasharray: none; stroke-linecap: butt; stroke-dashoffset: 0; stroke-linejoin: miter; stroke-miterlimit: 4; fill: rgb(164,120,100); fill-rule: nonzero; opacity: 1;" vector-effect="non-scaling-stroke"  transform=" translate(-19, -53.5)" d="M 0 0 C 0.66 0 1.32 0 2 0 C 4.76621264 5.32285242 7.07299762 10.57486707 9.0234375 16.2421875 C 9.29209625 17.00943146 9.560755 17.77667542 9.83755493 18.56716919 C 10.68836967 21.00140274 11.5316671 23.4381658 12.375 25.875 C 12.93183053 27.46891117 13.48911932 29.06266233 14.046875 30.65625 C 19.34007737 45.81555964 24.47518573 61.02413443 29.1875 76.375 C 29.51685547 77.43332031 29.84621094 78.49164063 30.18554688 79.58203125 C 32.10920664 85.83105721 33.83120591 92.09562254 35.36181641 98.45263672 C 36.0899568 101.35907012 36.98243207 104.18211959 38 107 C 36.68 107 35.36 107 34 107 C 33.65219482 105.9262915 33.30438965 104.85258301 32.94604492 103.74633789 C 31.64369285 99.72619442 30.34083937 95.70621359 29.0378418 91.6862793 C 28.47618358 89.95325005 27.9146576 88.22017795 27.35327148 86.48706055 C 26.54186012 83.98214352 25.72995811 81.47738596 24.91796875 78.97265625 C 24.54746651 77.82833885 24.54746651 77.82833885 24.16947937 76.66090393 C 21.54653607 68.57328908 18.84589537 60.51436331 16.07421875 52.4765625 C 15.5187612 50.86071799 14.9634268 49.24483114 14.40820312 47.62890625 C 13.5539695 45.14364231 12.69909484 42.65860931 11.84204102 40.17431641 C 8.67278148 30.98429268 5.55770566 21.77818406 2.58203125 12.5234375 C 2.32169601 11.7266861 2.06136078 10.92993469 1.7931366 10.10903931 C 1.55694107 9.36584442 1.32074554 8.62264954 1.07739258 7.85693359 C 0.86858963 7.20679291 0.65978668 6.55665222 0.44465637 5.8868103 C 0 4 0 4 0 0 Z" stroke-linecap="round" />
</g>
		<g transform="matrix(1 0 0 1 -281.5 56.58)"  >
<path style="stroke: none; stroke-width: 1; stroke-dasharray: none; stroke-linecap: butt; stroke-dashoffset: 0; stroke-linejoin: miter; stroke-miterlimit: 4; fill: rgb(164,120,100); fill-rule: nonzero; opacity: 1;" vector-effect="non-scaling-stroke"  transform=" translate(-44, -32)" d="M 0 0 C 4.57589291 0.56013755 7.98076192 2.5239749 11.8125 4.9375 C 12.40998047 5.29779297 13.00746094 5.65808594 13.62304688 6.02929688 C 15.12129015 6.95906384 16.56628564 7.97351929 18 9 C 18 9.66 18 10.32 18 11 C 18.6909375 11.23589844 19.381875 11.47179687 20.09375 11.71484375 C 23.56571615 13.25016212 26.46499409 15.3192902 29.5 17.5625 C 30.74546043 18.46831934 31.99156903 19.37324807 33.23828125 20.27734375 C 33.86557129 20.73351074 34.49286133 21.18967773 35.13916016 21.65966797 C 37.95968432 23.69124468 40.82238554 25.6567314 43.6875 27.625 C 48.65826108 31.04957051 53.54819765 34.56767184 58.41015625 38.14453125 C 61.66871616 40.47909529 65.02227263 42.64443713 68.41796875 44.7734375 C 68.94003906 45.17820312 69.46210938 45.58296875 70 46 C 70 46.66 70 47.32 70 48 C 71.02673828 48.32677734 71.02673828 48.32677734 72.07421875 48.66015625 C 75.84892137 50.38875839 78.67375125 52.75364237 81.8125 55.4375 C 82.40998047 55.92798828 83.00746094 56.41847656 83.62304688 56.92382812 C 85.14446829 58.21225472 86.5798965 59.60068865 88 61 C 88 61.99 88 62.98 88 64 C 84.12492164 62.62497219 81.16011793 60.83638686 77.875 58.375 C 76.91335937 57.66085937 75.95171875 56.94671875 74.9609375 56.2109375 C 73.98382813 55.48132813 73.00671875 54.75171875 72 54 C 70.16867644 52.6639076 68.3353779 51.33051751 66.5 50 C 63.81759511 48.05053391 61.13626801 46.09979011 58.4609375 44.140625 C 50.04747835 37.98939505 41.52296355 31.99791527 33 26 C 4.80901877 6.16099496 4.80901877 6.16099496 0 2 C 0 1.34 0 0.68 0 0 Z" stroke-linecap="round" />
</g>
		<g transform="matrix(1 0 0 1 -330.5 152.58)"  >
<path style="stroke: none; stroke-width: 1; stroke-dasharray: none; stroke-linecap: butt; stroke-dashoffset: 0; stroke-linejoin: miter; stroke-miterlimit: 4; fill: rgb(164,120,100); fill-rule: nonzero; opacity: 1;" vector-effect="non-scaling-stroke"  transform=" translate(-51, -15.99)" d="M 0 0 C 6.59951437 -0.47205503 12.16328892 1.26038917 18.4375 3.1875 C 20.05072144 3.67114014 20.05072144 3.67114014 21.6965332 4.16455078 C 24.80114073 5.09879582 27.90132741 6.04627871 31 7 C 31.72896484 7.22349121 32.45792969 7.44698242 33.20898438 7.67724609 C 36.29530002 8.62645468 39.37546643 9.59337939 42.453125 10.5703125 C 46.14269325 11.73896179 49.84359056 12.86778903 53.546875 13.9921875 C 65.86397672 17.74547453 78.11864057 21.61666925 90.25 25.9375 C 91.32113037 26.31487305 92.39226074 26.69224609 93.49584961 27.08105469 C 94.47175049 27.43458008 95.44765137 27.78810547 96.453125 28.15234375 C 97.31067383 28.46163818 98.16822266 28.77093262 99.05175781 29.08959961 C 101 30 101 30 102 32 C 95.35859261 32.28932864 90.34085128 31.52137143 84.125 29.25 C 83.33327393 28.97414063 82.54154785 28.69828125 81.72583008 28.4140625 C 77.69085974 27.00039848 73.68720476 25.51028852 69.6875 24 C 64.65712071 22.13746199 59.53633951 20.69612646 54.375 19.25 C 36.0614752 14.11678879 18.01924372 8.07545382 0 2 C 0 1.34 0 0.68 0 0 Z" stroke-linecap="round" />
</g>
		<g transform="matrix(1 0 0 1 334.34 7.58)"  >
<path style="stroke: none; stroke-width: 1; stroke-dasharray: none; stroke-linecap: butt; stroke-dashoffset: 0; stroke-linejoin: miter; stroke-miterlimit: 4; fill: rgb(164,120,100); fill-rule: nonzero; opacity: 1;" vector-effect="non-scaling-stroke"  transform=" translate(10.16, -10)" d="M 0 0 C 1.44159967 5.33715832 0.4934966 8.01922693 -2.125 12.8125 C -2.72570312 13.95332031 -3.32640625 15.09414062 -3.9453125 16.26953125 C -6 19 -6 19 -8.55078125 20.0078125 C -11.71323448 19.99772493 -13.29115301 18.77604579 -15.57421875 16.6640625 C -19.14862838 12.49228578 -21 8.48460073 -21 3 C -18.25071558 2.49576443 -15.50068857 1.99646574 -12.75 1.5 C -11.97269531 1.35691406 -11.19539062 1.21382812 -10.39453125 1.06640625 C -9.64042969 0.93105469 -8.88632812 0.79570312 -8.109375 0.65625 C -7.07248535 0.46772461 -7.07248535 0.46772461 -6.01464844 0.27539062 C -4 0 -4 0 0 0 Z M -4 4 C -7.96 4.66 -11.92 5.32 -16 6 C -14.80086322 10.39683488 -13.5711885 13.09840934 -10 16 C -9.34 16 -8.68 16 -8 16 C -7.13624104 14.38007835 -6.28424146 12.75388139 -5.4375 11.125 C -4.96183594 10.22007812 -4.48617187 9.31515625 -3.99609375 8.3828125 C -3.66738281 7.59648437 -3.33867188 6.81015625 -3 6 C -3.33 5.34 -3.66 4.68 -4 4 Z" stroke-linecap="round" />
</g>
		<g transform="matrix(1 0 0 1 -4.89 -161.43)"  >
<path style="stroke: none; stroke-width: 1; stroke-dasharray: none; stroke-linecap: butt; stroke-dashoffset: 0; stroke-linejoin: miter; stroke-miterlimit: 4; fill: rgb(164,120,100); fill-rule: nonzero; opacity: 1;" vector-effect="non-scaling-stroke"  transform=" translate(-1.61, -10.99)" d="M 0 0 C 2.26171875 0.109375 2.26171875 0.109375 5 1 C 7.01953125 3.765625 7.01953125 3.765625 8.8125 7.25 C 9.41707031 8.38953125 10.02164062 9.5290625 10.64453125 10.703125 C 11.93467478 13.84111098 12.58378029 15.67422136 12 19 C 7.46304154 22.02463897 2.78439568 22.41576949 -2.58984375 21.61328125 C -4.74752599 21.13266009 -6.87495769 20.60787262 -9 20 C -8.40440894 15.13127946 -6.27522585 11.40671159 -3.9375 7.1875 C -3.56044922 6.49462891 -3.18339844 5.80175781 -2.79492188 5.08789062 C -1.86916148 3.38871015 -0.93537688 1.69390575 0 0 Z M 2 5 C 0.02 8.96 -1.96 12.92 -4 17 C 0.94660369 17.89038866 3.87361891 17.85439685 9 17 C 6.03 11.06 6.03 11.06 3 5 C 2.67 5 2.34 5 2 5 Z" stroke-linecap="round" />
</g>
		<g transform="matrix(1 0 0 1 396.6 122.58)"  >
<path style="stroke: none; stroke-width: 1; stroke-dasharray: none; stroke-linecap: butt; stroke-dashoffset: 0; stroke-linejoin: miter; stroke-miterlimit: 4; fill: rgb(164,120,100); fill-rule: nonzero; opacity: 1;" vector-effect="non-scaling-stroke"  transform=" translate(-10.1, -10)" d="M 0 0 C 7.19270839 0.46247533 14.0030827 1.25077067 21 3 C 21.53551657 6.64151264 21.09046443 7.87115673 18.9375 10.9375 C 12.44676291 18.0183041 12.44676291 18.0183041 9 20 C 6.36382715 19.84907407 5.3465209 19.37454146 3.55078125 17.43359375 C 0.49789381 12.51237772 -0.80297503 8.81223672 -1 3 C -0.67 2.01 -0.34 1.02 0 0 Z M 4 4 C 2.6976002 6.01933138 2.6976002 6.01933138 3.77734375 8.3828125 C 4.35162109 9.74019531 4.35162109 9.74019531 4.9375 11.125 C 5.31777344 12.03507812 5.69804688 12.94515625 6.08984375 13.8828125 C 6.39019531 14.58148438 6.69054687 15.28015625 7 16 C 10.45195767 14.5741914 12.1014256 12.90253666 14.25 9.875 C 15.1575 8.59625 16.065 7.3175 17 6 C 12.71 5.34 8.42 4.68 4 4 Z" stroke-linecap="round" />
</g>
		<g transform="matrix(1 0 0 1 239.12 -84.42)"  >
<path style="stroke: none; stroke-width: 1; stroke-dasharray: none; stroke-linecap: butt; stroke-dashoffset: 0; stroke-linejoin: miter; stroke-miterlimit: 4; fill: rgb(164,120,100); fill-rule: nonzero; opacity: 1;" vector-effect="non-scaling-stroke"  transform=" translate(9.38, -11)" d="M 0 0 C 2.27682186 6.83046557 1.07257207 14.22253803 -1 21 C -1.33 21.33 -1.66 21.66 -2 22 C -6.73132555 21.63605188 -10.18343542 20.8913368 -14 18 C -14 17.34 -14 16.68 -14 16 C -14.61875 15.773125 -15.2375 15.54625 -15.875 15.3125 C -18.61973575 13.61722204 -18.93463654 11.97054046 -20 9 C -2 0 -2 0 0 0 Z M -8.5625 8 C -9.57441406 8.556875 -10.58632813 9.11375 -11.62890625 9.6875 C -12.41136719 10.120625 -13.19382812 10.55375 -14 11 C -10.75281094 15.4691836 -10.75281094 15.4691836 -6 18 C -5.01 17.67 -4.02 17.34 -3 17 C -2.67 13.04 -2.34 9.08 -2 5 C -4.22684337 5 -6.69221738 6.96811993 -8.5625 8 Z" stroke-linecap="round" />
</g>
		<g transform="matrix(1 0 0 1 -246.38 -76.12)"  >
<path style="stroke: none; stroke-width: 1; stroke-dasharray: none; stroke-linecap: butt; stroke-dashoffset: 0; stroke-linejoin: miter; stroke-miterlimit: 4; fill: rgb(164,120,100); fill-rule: nonzero; opacity: 1;" vector-effect="non-scaling-stroke"  transform=" translate(2.88, -7.29)" d="M 0 0 C 1.7634375 0.7115625 1.7634375 0.7115625 3.5625 1.4375 C 6 3 6 3 7.25 5.25 C 6.84896936 9.66133699 4.20107861 12.10616777 1 15 C -2.80953401 17.41011335 -5.49469742 18.3975267 -10 18 C -12.4420792 11.16217825 -12.62022758 4.20568193 -13 -3 C -8.17945106 -4.60684965 -4.48758441 -1.97202855 0 0 Z M -9 0 C -8.34 4.62 -7.68 9.24 -7 14 C -1.24549813 11.19733929 -1.24549813 11.19733929 3 7 C 3 6.34 3 5.68 3 5 C 1.56328432 4.35242375 0.12559584 3.70700547 -1.3125 3.0625 C -2.11300781 2.70285156 -2.91351563 2.34320313 -3.73828125 1.97265625 C -6.09489608 0.92153959 -6.09489608 0.92153959 -9 0 Z" stroke-linecap="round" />
</g>
		<g transform="matrix(1 0 0 1 -131.5 -138.35)"  >
<path style="stroke: none; stroke-width: 1; stroke-dasharray: none; stroke-linecap: butt; stroke-dashoffset: 0; stroke-linejoin: miter; stroke-miterlimit: 4; fill: rgb(164,120,100); fill-rule: nonzero; opacity: 1;" vector-effect="non-scaling-stroke"  transform=" translate(-7, -11.07)" d="M 0 0 C 7.22926495 1.07669903 11.52878766 5.3774025 16 11 C 16.84375 13.16015625 16.84375 13.16015625 17 15 C 13.98288594 19.52567109 9.07928885 20.84948994 4 22 C 1.59521581 22.20624974 -0.58194825 22.15434373 -3 22 C -2.55761615 14.46783285 -1.86094772 7.3197277 0 0 Z M 3 4 C 2.34 8.62 1.68 13.24 1 18 C 3.1346875 17.5978125 3.1346875 17.5978125 5.3125 17.1875 C 6.11300781 17.03667969 6.91351563 16.88585937 7.73828125 16.73046875 C 10.23445587 15.92427764 11.32422106 14.97947998 13 13 C 11.71034824 11.62437146 10.37310707 10.29233607 9 9 C 8.34 9 7.68 9 7 9 C 6.71125 8.360625 6.4225 7.72125 6.125 7.0625 C 5.17176549 4.84793921 5.17176549 4.84793921 3 4 Z" stroke-linecap="round" />
</g>
		<g transform="matrix(1 0 0 1 -397.34 135.19)"  >
<path style="stroke: none; stroke-width: 1; stroke-dasharray: none; stroke-linecap: butt; stroke-dashoffset: 0; stroke-linejoin: miter; stroke-miterlimit: 4; fill: rgb(164,120,100); fill-rule: nonzero; opacity: 1;" vector-effect="non-scaling-stroke"  transform=" translate(9.84, -9.6)" d="M 0 0 C 1.53123685 1.53123685 1.24307107 2.93212824 1.3125 5.0625 C 1.25754336 9.97719383 0.04062348 14.08660497 -3 18 C -5.140625 19.22265625 -5.140625 19.22265625 -7 20 C -12.07265319 15.76420584 -17.19575591 11.46139587 -21 6 C -21 5.34 -21 4.68 -21 4 C -20.34 4 -19.68 4 -19 4 C -19 3.34 -19 2.68 -19 2 C -16.77376199 1.46678738 -14.54384996 0.94889881 -12.3125 0.4375 C -11.07113281 0.14746094 -9.82976562 -0.14257812 -8.55078125 -0.44140625 C -5.22653873 -0.96436189 -3.17969704 -0.98517515 0 0 Z M -12.25 4 C -13.58804688 4.2784375 -13.58804688 4.2784375 -14.953125 4.5625 C -15.96632813 4.7790625 -15.96632813 4.7790625 -17 5 C -13.50640535 8.59634744 -9.88901869 11.83451967 -6 15 C -3.58314288 10.77050005 -2.65166856 7.87664009 -3 3 C -6.3674681 3 -8.99299978 3.31431574 -12.25 4 Z" stroke-linecap="round" />
</g>
		<g transform="matrix(1 0 0 1 122.94 -142.42)"  >
<path style="stroke: none; stroke-width: 1; stroke-dasharray: none; stroke-linecap: butt; stroke-dashoffset: 0; stroke-linejoin: miter; stroke-miterlimit: 4; fill: rgb(164,120,100); fill-rule: nonzero; opacity: 1;" vector-effect="non-scaling-stroke"  transform=" translate(4.62, -10.83)" d="M 0 0 C 1.9387207 0.83666992 1.9387207 0.83666992 3.9387207 3.83666992 C 4.41518048 6.15488358 4.80144032 8.49239046 5.1262207 10.83666992 C 5.30540039 12.07416992 5.48458008 13.31166992 5.66918945 14.58666992 C 5.9387207 17.83666992 5.9387207 17.83666992 4.9387207 20.83666992 C -0.10331907 22.21177168 -4.59376037 22.14835104 -9.2878418 19.65307617 C -11.25095206 18.42873355 -13.16958159 17.16822857 -15.0612793 15.83666992 C -14.20079276 11.23892966 -11.46631585 8.7265115 -8.2487793 5.52416992 C -7.44730469 4.68015625 -7.44730469 4.68015625 -6.62963867 3.8190918 C -2.62246545 -0.20779692 -2.62246545 -0.20779692 0 0 Z M -2.6237793 5.21166992 C -4.28213726 6.72474055 -4.28213726 6.72474055 -4.0612793 8.83666992 C -4.7212793 8.83666992 -5.3812793 8.83666992 -6.0612793 8.83666992 C -6.0612793 9.49666992 -6.0612793 10.15666992 -6.0612793 10.83666992 C -6.7212793 10.83666992 -7.3812793 10.83666992 -8.0612793 10.83666992 C -8.3912793 12.15666992 -8.7212793 13.47666992 -9.0612793 14.83666992 C -7.9887793 15.33166992 -6.9162793 15.82666992 -5.8112793 16.33666992 C -5.20799805 16.61510742 -4.6047168 16.89354492 -3.9831543 17.18041992 C -1.76885094 18.05209916 -1.76885094 18.05209916 1.9387207 17.83666992 C 1.21994 10.79459287 1.21994 10.79459287 -0.0612793 3.83666992 C -1.28305258 3.72656527 -1.28305258 3.72656527 -2.6237793 5.21166992 Z" stroke-linecap="round" />
</g>
		<g transform="matrix(1 0 0 1 -338.5 18.89)"  >
<path style="stroke: none; stroke-width: 1; stroke-dasharray: none; stroke-linecap: butt; stroke-dashoffset: 0; stroke-linejoin: miter; stroke-miterlimit: 4; fill: rgb(164,120,100); fill-rule: nonzero; opacity: 1;" vector-effect="non-scaling-stroke"  transform=" translate(7.15, -8.94)" d="M 0 0 C 1.84765625 0.6328125 1.84765625 0.6328125 3.84765625 2.6328125 C 3.5032702 6.76544509 1.78335656 10.01389454 -0.15234375 13.6328125 C -0.81234375 13.6328125 -1.47234375 13.6328125 -2.15234375 13.6328125 C -2.37921875 14.2515625 -2.60609375 14.8703125 -2.83984375 15.5078125 C -4.53512171 18.25254825 -6.18180329 18.56744904 -9.15234375 19.6328125 C -18.15234375 3.26388046 -18.15234375 3.26388046 -18.15234375 -0.3671875 C -12.7771341 -3.05479233 -5.61045093 -1.24676687 0 0 Z M -14.15234375 1.6328125 C -12.17234375 5.5928125 -10.19234375 9.5528125 -8.15234375 13.6328125 C -3.14634759 11.12981442 -2.51986347 9.54322378 -0.15234375 4.6328125 C -0.48234375 3.9728125 -0.81234375 3.3128125 -1.15234375 2.6328125 C -4.19815644 2.16326989 -4.19815644 2.16326989 -7.71484375 2.0078125 C -10.90140625 1.8221875 -10.90140625 1.8221875 -14.15234375 1.6328125 Z" stroke-linecap="round" />
</g>
		<g transform="matrix(1 0 0 1 -265.59 -99.32)"  >
<path style="stroke: none; stroke-width: 1; stroke-dasharray: none; stroke-linecap: butt; stroke-dashoffset: 0; stroke-linejoin: miter; stroke-miterlimit: 4; fill: rgb(164,120,100); fill-rule: nonzero; opacity: 1;" vector-effect="non-scaling-stroke"  transform=" translate(3.09, -8.1)" d="M 0 0 C 2.375 1.5625 2.375 1.5625 4 4 C 4.59677999 8.10286241 4.38925759 10.26819573 2.4375 13.9375 C 0 16 0 16 -3.5625 16.5 C -7.18367251 15.973284 -7.89376221 15.80204849 -10 13 C -10.86672198 8.76008978 -10.70069294 5.10493887 -8.375 1.4375 C -5.27451464 -0.43910956 -3.56716403 -0.59452734 0 0 Z M -6 5 C -6.04080783 6.99958364 -6.04254356 9.00045254 -6 11 C -4.10820797 11.6814823 -4.10820797 11.6814823 -2 12 C 0.34973818 10.10244856 0.34973818 10.10244856 0.125 6.875 C 0.08375 5.92625 0.0425 4.9775 0 4 C -3.28930404 3.63314303 -3.28930404 3.63314303 -6 5 Z" stroke-linecap="round" />
</g>
		<g transform="matrix(1 0 0 1 -142.51 -164.3)"  >
<path style="stroke: none; stroke-width: 1; stroke-dasharray: none; stroke-linecap: butt; stroke-dashoffset: 0; stroke-linejoin: miter; stroke-miterlimit: 4; fill: rgb(164,120,100); fill-rule: nonzero; opacity: 1;" vector-effect="non-scaling-stroke"  transform=" translate(4.02, -8.12)" d="M 0 0 C 2.39363328 1.51596775 2.87699986 2.6749282 3.875 5.3125 C 4.04583023 8.98534996 2.97417995 10.93661733 1 14 C -1.21904761 15.62730158 -2.79671865 15.96442576 -5.5 16.4375 C -8 16 -8 16 -10.375 13.875 C -12 11 -12 11 -11.875 7.9375 C -11.11571726 5.38847938 -10.41406013 3.24586021 -9 1 C -5.95016004 -0.52491998 -3.3576631 -0.23562548 0 0 Z M -4 3 C -6.47878682 5.1554668 -7.57563804 6.71119485 -8 10 C -7.67 10.66 -7.34 11.32 -7 12 C -4.64035727 11.59316505 -3.14065912 11.10185661 -1.1875 9.6875 C 0.22436787 8.05317389 0.22436787 8.05317389 -0.125 5.875 C -0.41375 5.25625 -0.7025 4.6375 -1 4 C -1.99 3.67 -2.98 3.34 -4 3 Z" stroke-linecap="round" />
</g>
		<g transform="matrix(1 0 0 1 423.11 111.68)"  >
<path style="stroke: none; stroke-width: 1; stroke-dasharray: none; stroke-linecap: butt; stroke-dashoffset: 0; stroke-linejoin: miter; stroke-miterlimit: 4; fill: rgb(164,120,100); fill-rule: nonzero; opacity: 1;" vector-effect="non-scaling-stroke"  transform=" translate(5.14, -5.97)" d="M 0 0 C 2.25 1.875 2.25 1.875 3.25 5.3125 C 3.25 8.875 3.25 8.875 2.1875 11.25 C -0.52616546 13.52597748 -2.21083503 13.875 -5.75 13.875 C -9.217691 12.1411545 -11.21235603 10.74867145 -13.25 7.4375 C -13.88711301 4.17229583 -13.44183539 2.72035952 -11.75 -0.125 C -7.68390566 -3.2096233 -4.39053519 -1.79612803 0 0 Z M -7.75 1.875 C -8.08 3.525 -8.41 5.175 -8.75 6.875 C -6.99755753 8.5233633 -6.99755753 8.5233633 -4.75 9.875 C -2.54199472 9.65782648 -2.54199472 9.65782648 -0.75 8.875 C -0.75 7.225 -0.75 5.575 -0.75 3.875 C -3.06 3.215 -5.37 2.555 -7.75 1.875 Z" stroke-linecap="round" />
</g>
		<g transform="matrix(1 0 0 1 -362.57 0.43)"  >
<path style="stroke: none; stroke-width: 1; stroke-dasharray: none; stroke-linecap: butt; stroke-dashoffset: 0; stroke-linejoin: miter; stroke-miterlimit: 4; fill: rgb(164,120,100); fill-rule: nonzero; opacity: 1;" vector-effect="non-scaling-stroke"  transform=" translate(-0.5, -8.35)" d="M 0 0 C 3.5625 0.5 3.5625 0.5 6 2.0625 C 8.13706191 5.39631658 7.97957387 7.60731057 7.5625 11.5 C 6.54513229 14.26142665 6.20079259 15.18085371 3.5625 16.5 C 0.05912019 16.88080215 -1.80028626 16.90245078 -4.8125 15 C -7.10303108 11.47610603 -7.10795833 8.58979584 -6.4375 4.5 C -4.86671554 0.80403657 -4.00618099 0.58271724 0 0 Z M -0.4375 3.5 C -1.4275 4.49 -2.4175 5.48 -3.4375 6.5 C -2.7775 8.48 -2.1175 10.46 -1.4375 12.5 C -0.1175 12.5 1.2025 12.5 2.5625 12.5 C 2.8925 10.19 3.2225 7.88 3.5625 5.5 C 2.2425 4.84 0.9225 4.18 -0.4375 3.5 Z" stroke-linecap="round" />
</g>
		<g transform="matrix(1 0 0 1 -5.22 -188.85)"  >
<path style="stroke: none; stroke-width: 1; stroke-dasharray: none; stroke-linecap: butt; stroke-dashoffset: 0; stroke-linejoin: miter; stroke-miterlimit: 4; fill: rgb(164,120,100); fill-rule: nonzero; opacity: 1;" vector-effect="non-scaling-stroke"  transform=" translate(3.72, -7.57)" d="M 0 0 C 3.05623277 2.09110663 3.86463014 3.29306849 4.5625 6.9375 C 3.78858026 11.15106301 2.48073393 12.53448014 -1 15 C -4.0206906 15.67583545 -5.82492713 15.46089767 -9 15 C -11.0625 13.4375 -11.0625 13.4375 -12 11 C -12 6.76711284 -11.66316819 4.73895884 -8.8125 1.5625 C -5.47784863 -0.29008409 -3.7555677 -0.63924557 0 0 Z M -5 3 C -6.6483633 4.75244247 -6.6483633 4.75244247 -8 7 C -7.93391003 9.18343185 -7.93391003 9.18343185 -7 11 C -6.34 11.33 -5.68 11.66 -5 12 C -2.37612865 10.60907108 -2.37612865 10.60907108 0 9 C -0.33 7.35 -0.66 5.7 -1 4 C -2.32 3.67 -3.64 3.34 -5 3 Z" stroke-linecap="round" />
</g>
		<g transform="matrix(1 0 0 1 357.96 -11)"  >
<path style="stroke: none; stroke-width: 1; stroke-dasharray: none; stroke-linecap: butt; stroke-dashoffset: 0; stroke-linejoin: miter; stroke-miterlimit: 4; fill: rgb(164,120,100); fill-rule: nonzero; opacity: 1;" vector-effect="non-scaling-stroke"  transform=" translate(0.54, -7.29)" d="M 0 0 C 0.86625 0.06445312 1.7325 0.12890625 2.625 0.1953125 C 5 0.875 5 0.875 6.8203125 2.73828125 C 8 4.875 8 4.875 7.875 7.9375 C 6.98432502 10.92762313 6.51570359 12.10469007 4 13.875 C 1.2421751 15.11126634 -0.06615426 14.86014904 -3.0625 14.1875 C -6.28352185 12.74832003 -7.53054309 12.07322975 -9 8.875 C -8.875 5.25 -8.875 5.25 -8 1.875 C -4.65404401 -0.35563732 -3.84657103 -0.35489197 0 0 Z M -4 3.875 C -4.33 5.195 -4.66 6.515 -5 7.875 C -1.19572508 10.0763866 -1.19572508 10.0763866 3 10.875 C 4.00217064 7.29172247 4.00217064 7.29172247 3 3.875 C 0.69 3.875 -1.62 3.875 -4 3.875 Z" stroke-linecap="round" />
</g>
		<g transform="matrix(1 0 0 1 132.48 -169.13)"  >
<path style="stroke: none; stroke-width: 1; stroke-dasharray: none; stroke-linecap: butt; stroke-dashoffset: 0; stroke-linejoin: miter; stroke-miterlimit: 4; fill: rgb(164,120,100); fill-rule: nonzero; opacity: 1;" vector-effect="non-scaling-stroke"  transform=" translate(4.03, -7.29)" d="M 0 0 C 2.375 1.625 2.375 1.625 4 4 C 4.50299316 8.10777749 4.32749345 9.50875983 2 13 C -1.65812431 14.44944548 -3.96266163 15.27662356 -7.8125 14.25 C -10 13 -10 13 -12 11 C -12.375 8.125 -12.375 8.125 -12 5 C -8.41506311 0.57857783 -5.66741297 -0.5667413 0 0 Z M -8 6 C -7.67 7.32 -7.34 8.64 -7 10 C -5.02 10 -3.04 10 -1 10 C -0.34 8.68 0.32 7.36 1 6 C -0.37485532 4.45833358 -0.37485532 4.45833358 -2 3 C -4.76223278 3 -5.89281454 4.31425163 -8 6 Z" stroke-linecap="round" />
</g>
		<g transform="matrix(1 0 0 1 -423.99 125.83)"  >
<path style="stroke: none; stroke-width: 1; stroke-dasharray: none; stroke-linecap: butt; stroke-dashoffset: 0; stroke-linejoin: miter; stroke-miterlimit: 4; fill: rgb(164,120,100); fill-rule: nonzero; opacity: 1;" vector-effect="non-scaling-stroke"  transform=" translate(4.49, -7.24)" d="M 0 0 C 2.22782775 2.29744736 2.98871991 3.82235855 3.01953125 7.0390625 C 2.68929173 10.46607641 2.48169736 12.51830264 0 15 C -3.375 15.4375 -3.375 15.4375 -7 15 C -10.19992185 12.05270356 -11.78173792 9.36524155 -12 5 C -11.25 2.25 -11.25 2.25 -10 0 C -6.17853346 -1.27382218 -3.89335307 -0.97333827 0 0 Z M -6 2 C -6.66 2.66 -7.32 3.32 -8 4 C -7.67028521 7.29714793 -7.3773161 8.6226839 -5 11 C -2.89179203 10.6814823 -2.89179203 10.6814823 -1 10 C -1.33 7.69 -1.66 5.38 -2 3 C -3.89179203 2.3185177 -3.89179203 2.3185177 -6 2 Z" stroke-linecap="round" />
</g>
		<g transform="matrix(1 0 0 1 257.68 -108.22)"  >
<path style="stroke: none; stroke-width: 1; stroke-dasharray: none; stroke-linecap: butt; stroke-dashoffset: 0; stroke-linejoin: miter; stroke-miterlimit: 4; fill: rgb(164,120,100); fill-rule: nonzero; opacity: 1;" vector-effect="non-scaling-stroke"  transform=" translate(5.82, -6.2)" d="M 0 0 C 2 2 2 2 2.3125 5.9375 C 2.22787031 8.39176089 2.10592691 9.78814617 1 12 C -2.95038767 13.97519384 -7.26927066 13.39939908 -11.4375 12.4375 C -13 11 -13 11 -13.9375 7.625 C -14 4 -14 4 -12.875 1.625 C -8.94194729 -1.78364568 -4.82497385 -1.17943805 0 0 Z M -10 5 C -9.67 6.32 -9.34 7.64 -9 9 C -6.36 9 -3.72 9 -1 9 C -1.33 7.02 -1.66 5.04 -2 3 C -5.71599191 2.79913557 -6.77208445 2.8480563 -10 5 Z" stroke-linecap="round" />
</g>
</g>
</g>
<g transform="matrix(NaN NaN NaN NaN 0 0)"  >
<g style=""   >
</g>
</g>
<g transform="matrix(NaN NaN NaN NaN 0 0)"  >
<g style=""   >
</g>
</g>
</svg>